<svg xmlns="http://www.w3.org/2000/svg" width="110" height="28" viewBox="0 0 110 28" role="img" aria-label="Tech Stack"><title>Tech Stack</title><metadata>Typography: KoPubWorld Dotum — Ministry of Culture, Sports and Tourism &amp; Korea Publishers Society. https://www.kopus.org/biz-electronic-font2/ Static typeset outlines; font software is not embedded.</metadata><path d="M7.348 23.91L4.906 23.91L4.906 9.368L0 9.368L0 7.278L12.21 7.278L12.21 9.368L7.348 9.368ZM19.621 16.914C19.562 16.078 19.306 15.392 18.851 14.857C18.396 14.321 17.707 14.054 16.783 14.054C16.343 14.054 15.958 14.134 15.628 14.296C15.298 14.457 15.016 14.67 14.781 14.934C14.546 15.198 14.367 15.502 14.242 15.847C14.117 16.191 14.04 16.547 14.011 16.914ZM22.151 19.708C21.74 21.336 21.069 22.509 20.138 23.228C19.207 23.946 18.03 24.306 16.607 24.306C15.727 24.306 14.957 24.133 14.297 23.789C13.637 23.444 13.094 22.986 12.669 22.414C12.244 21.842 11.925 21.189 11.712 20.456C11.499 19.722 11.393 18.967 11.393 18.19C11.393 17.412 11.503 16.657 11.723 15.924C11.943 15.19 12.277 14.538 12.724 13.966C13.171 13.394 13.729 12.935 14.396 12.591C15.063 12.246 15.837 12.074 16.717 12.074C17.656 12.074 18.47 12.235 19.159 12.558C19.848 12.88 20.413 13.32 20.853 13.878C21.293 14.435 21.619 15.091 21.832 15.847C22.045 16.602 22.151 17.405 22.151 18.256C22.151 18.666 21.975 18.872 21.623 18.872L13.945 18.872C13.945 19.341 14.004 19.785 14.121 20.203C14.238 20.621 14.418 20.984 14.66 21.292C14.902 21.6 15.214 21.845 15.595 22.029C15.976 22.212 16.438 22.304 16.981 22.304C18.257 22.304 19.115 21.438 19.555 19.708ZM33.767 19.708C33.547 21.248 32.99 22.399 32.095 23.162C31.201 23.924 30.115 24.306 28.839 24.306C27.959 24.306 27.193 24.133 26.54 23.789C25.888 23.444 25.345 22.986 24.912 22.414C24.48 21.842 24.157 21.189 23.944 20.456C23.732 19.722 23.625 18.967 23.625 18.19C23.625 17.412 23.739 16.657 23.966 15.924C24.194 15.19 24.535 14.538 24.989 13.966C25.444 13.394 26.001 12.935 26.661 12.591C27.321 12.246 28.091 12.074 28.971 12.074C29.587 12.074 30.174 12.173 30.731 12.371C31.289 12.569 31.784 12.862 32.216 13.251C32.649 13.639 32.997 14.116 33.261 14.681C33.525 15.245 33.679 15.887 33.723 16.606L31.171 16.606C31.113 15.638 30.889 14.97 30.5 14.604C30.112 14.237 29.543 14.054 28.795 14.054C28.399 14.054 28.04 14.153 27.717 14.351C27.395 14.549 27.12 14.831 26.892 15.198C26.665 15.564 26.489 16.001 26.364 16.507C26.24 17.013 26.177 17.574 26.177 18.19C26.177 18.791 26.24 19.345 26.364 19.851C26.489 20.357 26.665 20.793 26.892 21.16C27.12 21.526 27.391 21.809 27.706 22.007C28.022 22.205 28.377 22.304 28.773 22.304C29.477 22.304 30.027 22.117 30.423 21.743C30.819 21.369 31.069 20.69 31.171 19.708ZM45.358 23.91L42.916 23.91L42.916 16.958C42.916 15.872 42.733 15.113 42.366 14.681C41.999 14.248 41.398 14.032 40.562 14.032C40.254 14.032 39.946 14.098 39.638 14.23C39.33 14.362 39.055 14.567 38.813 14.846C38.571 15.124 38.373 15.48 38.219 15.913C38.065 16.345 37.988 16.855 37.988 17.442L37.988 23.91L35.656 23.91L35.656 7.124L37.988 7.124L37.988 13.46C38.413 13.005 38.886 12.657 39.407 12.415C39.928 12.173 40.503 12.052 41.134 12.052C42.469 12.052 43.506 12.426 44.247 13.174C44.988 13.922 45.358 14.985 45.358 16.364ZM56.315 19.004C56.301 19.649 56.374 20.173 56.535 20.577C56.697 20.98 56.92 21.299 57.206 21.534C57.492 21.768 57.83 21.926 58.218 22.007C58.607 22.087 59.029 22.128 59.483 22.128C59.879 22.128 60.268 22.076 60.649 21.974C61.031 21.871 61.375 21.71 61.683 21.49C61.991 21.27 62.237 20.995 62.42 20.665C62.604 20.335 62.695 19.942 62.695 19.488C62.695 19.048 62.615 18.681 62.453 18.388C62.292 18.094 62.039 17.838 61.694 17.618C61.35 17.398 60.917 17.189 60.396 16.991C59.876 16.793 59.256 16.562 58.537 16.298C57.995 16.122 57.459 15.916 56.931 15.682C56.403 15.447 55.93 15.154 55.512 14.802C55.094 14.45 54.757 14.021 54.5 13.515C54.244 13.009 54.115 12.389 54.115 11.656C54.115 10.908 54.273 10.24 54.588 9.654C54.904 9.067 55.318 8.572 55.831 8.169C56.345 7.765 56.924 7.461 57.569 7.256C58.215 7.05 58.86 6.948 59.505 6.948C60.209 6.948 60.818 7.01 61.331 7.135C61.845 7.259 62.358 7.461 62.871 7.74C63.487 8.062 63.986 8.532 64.367 9.148C64.749 9.764 64.947 10.556 64.961 11.524L62.409 11.524C62.38 11.04 62.285 10.636 62.123 10.314C61.962 9.991 61.753 9.738 61.496 9.555C61.24 9.371 60.95 9.243 60.627 9.17C60.305 9.096 59.967 9.06 59.615 9.06C58.765 9.06 58.061 9.272 57.503 9.698C56.946 10.123 56.667 10.695 56.667 11.414C56.667 11.927 56.766 12.345 56.964 12.668C57.162 12.99 57.441 13.269 57.8 13.504C58.16 13.738 58.589 13.944 59.087 14.12C59.586 14.296 60.143 14.494 60.759 14.714C61.331 14.919 61.885 15.135 62.42 15.363C62.956 15.59 63.432 15.872 63.85 16.21C64.268 16.547 64.606 16.965 64.862 17.464C65.119 17.962 65.247 18.586 65.247 19.334C65.247 20.17 65.093 20.914 64.785 21.567C64.477 22.219 64.045 22.736 63.487 23.118C62.857 23.587 62.215 23.891 61.562 24.031C60.91 24.17 60.151 24.24 59.285 24.24C57.555 24.24 56.194 23.789 55.204 22.887C54.214 21.985 53.712 20.69 53.697 19.004ZM73.345 23.976C73.096 24.078 72.795 24.155 72.443 24.207C72.091 24.258 71.79 24.284 71.541 24.284C71.116 24.284 70.716 24.236 70.342 24.141C69.968 24.045 69.638 23.884 69.352 23.657C69.066 23.429 68.842 23.129 68.681 22.755C68.52 22.381 68.439 21.908 68.439 21.336L68.439 14.362L66.305 14.362L66.305 12.36L68.439 12.36L68.439 9.214L70.793 9.214L70.793 12.36L73.213 12.36L73.213 14.362L70.793 14.362L70.793 20.874C70.793 21.49 70.87 21.886 71.024 22.062C71.178 22.238 71.431 22.326 71.783 22.326C71.988 22.326 72.227 22.311 72.498 22.282C72.769 22.252 73.052 22.157 73.345 21.996ZM78.358 22.304C78.916 22.304 79.385 22.201 79.766 21.996C80.324 21.658 80.683 21.189 80.844 20.588C81.02 20.001 81.108 19.326 81.108 18.564C80.8 18.564 80.386 18.56 79.865 18.553C79.345 18.545 78.839 18.6 78.347 18.718C77.856 18.835 77.431 19.04 77.071 19.334C76.712 19.627 76.532 20.074 76.532 20.676C76.532 21.321 76.683 21.754 76.983 21.974C77.284 22.194 77.742 22.304 78.358 22.304ZM83.374 21.996C83.374 22.245 83.385 22.538 83.407 22.876C83.429 23.213 83.477 23.572 83.55 23.954L81.152 23.954L81.13 22.854C81.042 23.015 80.907 23.18 80.723 23.349C80.54 23.517 80.316 23.675 80.052 23.822C79.788 23.968 79.491 24.086 79.161 24.174C78.831 24.262 78.483 24.306 78.116 24.306C76.694 24.306 75.652 23.99 74.992 23.36C74.332 22.729 74.002 21.82 74.002 20.632C74.002 19.825 74.222 19.117 74.662 18.509C75.102 17.9 75.682 17.449 76.4 17.156C76.796 16.98 77.214 16.851 77.654 16.771C78.094 16.69 78.527 16.635 78.952 16.606C79.378 16.576 79.774 16.565 80.14 16.573C80.507 16.58 80.808 16.584 81.042 16.584L81.042 16.078C80.984 15.271 80.786 14.732 80.448 14.461C80.111 14.189 79.605 14.054 78.93 14.054C78.637 14.054 78.377 14.079 78.149 14.131C77.922 14.182 77.724 14.277 77.555 14.417C77.387 14.556 77.251 14.754 77.148 15.011C77.046 15.267 76.972 15.601 76.928 16.012L74.376 16.012C74.406 15.308 74.56 14.71 74.838 14.219C75.117 13.727 75.469 13.32 75.894 12.998C76.32 12.675 76.8 12.44 77.335 12.294C77.871 12.147 78.417 12.074 78.974 12.074C79.634 12.074 80.236 12.158 80.778 12.327C81.321 12.495 81.787 12.752 82.175 13.097C82.564 13.441 82.865 13.867 83.077 14.373C83.29 14.879 83.389 15.469 83.374 16.144ZM95.427 19.708C95.207 21.248 94.65 22.399 93.755 23.162C92.861 23.924 91.775 24.306 90.499 24.306C89.619 24.306 88.853 24.133 88.2 23.789C87.548 23.444 87.005 22.986 86.572 22.414C86.14 21.842 85.817 21.189 85.604 20.456C85.392 19.722 85.285 18.967 85.285 18.19C85.285 17.412 85.399 16.657 85.626 15.924C85.854 15.19 86.195 14.538 86.649 13.966C87.104 13.394 87.661 12.935 88.321 12.591C88.981 12.246 89.751 12.074 90.631 12.074C91.247 12.074 91.834 12.173 92.391 12.371C92.949 12.569 93.444 12.862 93.876 13.251C94.309 13.639 94.657 14.116 94.921 14.681C95.185 15.245 95.339 15.887 95.383 16.606L92.831 16.606C92.773 15.638 92.549 14.97 92.16 14.604C91.772 14.237 91.203 14.054 90.455 14.054C90.059 14.054 89.7 14.153 89.377 14.351C89.055 14.549 88.78 14.831 88.552 15.198C88.325 15.564 88.149 16.001 88.024 16.507C87.9 17.013 87.837 17.574 87.837 18.19C87.837 18.791 87.9 19.345 88.024 19.851C88.149 20.357 88.325 20.793 88.552 21.16C88.78 21.526 89.051 21.809 89.366 22.007C89.682 22.205 90.037 22.304 90.433 22.304C91.137 22.304 91.687 22.117 92.083 21.743C92.479 21.369 92.729 20.69 92.831 19.708ZM107.48 23.91L104.378 23.91L99.758 18.916L99.758 23.91L97.426 23.91L97.426 7.124L99.758 7.124L99.758 16.012L103.96 12.36L107.194 12.36L101.32 17.398Z" transform="translate(1 -1.627)" fill="#F0F6FC"/></svg>
